<svg width="31" height="45" viewBox="0 0 31 45" fill="none" xmlns="http://www.w3.org/2000/svg">
<path d="M30 29.5C30 37.5081 23.5081 44 15.5 44C7.49187 44 1 37.5081 1 29.5C1 26.6966 1.91048 23.4985 3.33833 20.2283C4.76086 16.9702 6.66597 13.7097 8.58477 10.8006C10.5018 7.89418 12.4207 5.3561 13.8609 3.54412C14.5262 2.7072 15.0884 2.02632 15.5 1.53689C15.9116 2.02632 16.4738 2.7072 17.1391 3.54412C18.5793 5.3561 20.4982 7.89418 22.4152 10.8006C24.334 13.7097 26.2391 16.9702 27.6617 20.2283C29.0895 23.4985 30 26.6966 30 29.5Z" stroke="#292929" stroke-width="2"/>
</svg>
